# xmcd
# 
# Track frame offsets:
#     150
#     13792
#     37950
#     58180
#     75197
#     98830
#     121737
#     140815
#     154337
#     172685
# 
# Disc length: 2539
# 
# Revision: 4
# Processed by: cddbd v1.5.2PL0 Copyright (c) Steve Scherf et al.
# Submitted via: BonkEnc v1.0.8
# 
DISCID=7309e90a
DTITLE=TATSURO YAMASHITA - POCKET MUSIC
DYEAR=1985
DGENRE=J-POP
TTITLE0=土曜日の恋人
TTITLE1=ポケット・ミュージック
TTITLE2=MERMAID
TTITLE3=十字路
TTITLE4=メロディー、君の為に
TTITLE5=THE WAR SONG
TTITLE6=シャンプー
TTITLE7=ムーンライト
TTITLE8=LADY BLUE
TTITLE9=風の回廊
EXTD=YEAR: 1985
EXTT0=
EXTT1=
EXTT2=
EXTT3=
EXTT4=
EXTT5=
EXTT6=
EXTT7=
EXTT8=
EXTT9=
PLAYORDER=
